<svg width="108" height="31" viewBox="0 0 108 31" fill="none" xmlns="http://www.w3.org/2000/svg">
<path d="M24.163 16.4599C23.4433 13.9913 21.8781 11.4141 19.7358 9.1271L22.9391 5.92503L22.3993 5.38513C19.9836 2.96915 17.1827 1.21021 14.5124 0.432617C11.6843 -0.392518 9.30944 -0.0291869 7.82748 1.453C7.27577 2.00479 6.88024 2.67882 6.64089 3.45472C5.86511 3.69241 5.19118 4.0897 4.63948 4.64149C4.08268 5.19837 3.68885 5.87579 3.45289 6.64321C2.6788 6.8809 2.00488 7.27649 1.45487 7.82828C-0.0287907 9.31046 -0.392067 11.6857 0.431246 14.5143C1.15101 16.9829 2.71615 19.5618 4.85846 21.8471L1.65688 25.0492L2.1967 25.5891C5.66649 29.0594 9.67781 30.9796 12.8471 30.9796C14.4174 30.9796 15.7805 30.5076 16.7685 29.5195C17.3253 28.9626 17.7191 28.2852 17.9551 27.5195C18.7207 27.2835 19.398 26.8896 19.9548 26.3327C20.5133 25.7741 20.9071 25.0933 21.1448 24.3259C21.9155 24.0865 22.5911 23.6977 23.1411 23.1476C24.6247 21.6637 24.9863 19.2902 24.163 16.4616V16.4599ZM8.90712 2.53451C9.97658 1.46319 11.815 1.23908 14.0847 1.89952C16.3152 2.54979 18.6646 3.97255 20.7679 5.93522L18.6612 8.0422C16.3746 5.89956 13.7944 4.33928 11.3244 3.6211C10.3331 3.33248 9.39771 3.18986 8.53705 3.18986C8.49461 3.18986 8.45218 3.18986 8.40974 3.18986C8.54894 2.94707 8.7136 2.72975 8.90712 2.5362V2.53451ZM5.71912 5.72299C5.91264 5.52944 6.13162 5.36306 6.37268 5.22553C6.36589 5.61773 6.39474 6.0269 6.44907 6.44966C6.02638 6.39532 5.61896 6.36986 5.22683 6.37665C5.36263 6.13726 5.5256 5.91824 5.71912 5.72299ZM4.75151 7.93694C5.36263 7.87072 6.04335 7.90807 6.78179 8.05069C6.79027 8.08125 6.79537 8.11011 6.80555 8.14067C7.58303 10.8113 9.50975 13.4548 11.759 16.0287C13.6229 18.1628 15.239 20.3174 16.0283 22.4142C13.8623 21.6043 11.6283 20.1119 9.65234 18.1357C6.30138 14.7842 4.45784 10.7163 4.75321 7.93694H4.75151ZM15.6871 28.4397C13.4837 30.6434 8.16529 29.0798 3.82635 25.039L5.93301 22.9337C9.32472 26.1188 13.168 27.8624 16.1811 27.7911C16.0453 28.0288 15.8807 28.2461 15.6871 28.4397ZM16.6581 26.2223C13.8843 26.5161 9.81361 24.6689 6.46434 21.3191L6.46095 21.3157C4.22527 19.0797 2.60411 16.5109 1.89793 14.0864C1.23758 11.8181 1.46336 9.9794 2.53451 8.90808C2.72464 8.71793 2.94702 8.56513 3.18298 8.4276C3.12696 11.6178 5.05028 15.6959 8.56931 19.2155C10.9849 21.6315 13.7859 23.3921 16.4561 24.1697C16.4833 24.1782 16.5105 24.1833 16.5376 24.1901C16.6785 24.9167 16.7243 25.6026 16.6598 26.2223H16.6581ZM18.8751 25.2512C18.6816 25.4447 18.4643 25.6094 18.2267 25.7453C18.2335 25.3514 18.2114 24.9422 18.1588 24.5245C18.5305 24.5721 18.8955 24.6009 19.2435 24.6009C19.2859 24.6009 19.3267 24.5958 19.3691 24.5958C19.2316 24.8369 19.0704 25.056 18.8751 25.2512ZM16.025 11.7587C13.6093 9.34272 10.8084 7.58379 8.13983 6.8045C8.10927 6.79601 8.08041 6.78922 8.04986 6.78073C7.90726 6.04218 7.86652 5.35796 7.93103 4.74675C8.78999 4.65337 9.79154 4.76543 10.8966 5.08631C13.3241 5.7943 15.8925 7.41571 18.1299 9.65342C20.3673 11.8911 21.9884 14.4599 22.6963 16.8878C23.3567 19.1561 23.1309 20.9948 22.0614 22.0661C21.8713 22.2563 21.6489 22.4091 21.413 22.5466C21.469 19.3564 19.5457 15.2783 16.0266 11.7587M14.9453 12.8402C18.2963 16.1917 20.1398 20.2596 19.8444 23.039C19.2367 23.1052 18.5594 23.0678 17.8261 22.9269C17.0978 20.3394 15.2067 17.718 12.8386 14.9472C11.0189 12.8181 9.36376 10.7281 8.55573 8.55664C10.7269 9.36479 12.966 10.8606 14.9453 12.8402Z" fill="url(#paint0_linear_5001_233517)"/>
<path d="M31.2572 11.0139C31.2572 11.7491 31.8242 12.2975 32.2978 12.6302C32.9802 13.1073 34.3977 13.2635 35.7693 13.4163C38.6602 13.7372 42.6206 14.1787 42.6206 18.3705C42.6206 21.031 39.655 23.1159 35.8712 23.1159C32.0873 23.1159 29.1217 21.031 29.1217 18.3705H31.2555C31.2555 19.9088 33.6881 20.9818 35.8712 20.9818C38.0542 20.9818 40.4868 19.9088 40.4868 18.3705C40.4868 16.3128 38.9013 15.9121 35.5334 15.5386C33.8205 15.3484 32.2028 15.1685 31.0756 14.3807C29.816 13.5012 29.1217 12.306 29.1217 11.0139C29.1217 8.35346 32.0873 6.26855 35.8712 6.26855C39.655 6.26855 42.6206 8.35346 42.6206 11.0139H40.4868C40.4868 9.47572 38.0542 8.4027 35.8712 8.4027C33.6881 8.4027 31.2555 9.47402 31.2555 11.0139H31.2572Z" fill="#1C0236"/>
<path d="M56.3436 16.9813C56.3436 20.3922 53.8532 23.1664 50.7943 23.1664C49.1748 23.1664 47.9559 22.3905 47.1649 21.1545V27.1002H45.0311V11.3955H47.1649V12.8098C47.9559 11.5738 49.1748 10.7979 50.7943 10.7979C53.8549 10.7979 56.3436 13.5721 56.3436 16.983V16.9813ZM54.208 16.9813C54.208 14.7181 52.6751 12.8794 50.7926 12.8794C48.91 12.8794 47.1632 14.7198 47.1632 16.9813C47.1632 19.2445 48.9083 21.0849 50.7926 21.0849C52.6768 21.0849 54.208 19.2445 54.208 16.983V16.9813Z" fill="#1C0236"/>
<path d="M58.5673 9.88051V7.67676H61.1849V9.88051H58.5673ZM58.8101 22.5394V11.3169H60.9439V22.5394H58.8101Z" fill="#1C0236"/>
<path d="M75.2933 16.9242V22.5456H73.1595V16.9259C73.1595 14.6644 71.6266 12.824 69.744 12.824C67.8614 12.824 66.1147 14.6644 66.1147 16.9259V22.5473H63.9808V11.301H66.1147V12.756C66.9057 11.52 68.1246 10.7441 69.744 10.7441C72.8047 10.7441 75.2933 13.5184 75.2933 16.9293V16.9242Z" fill="#1C0236"/>
<path d="M79.5576 11.0139C79.5576 11.7491 80.1246 12.2975 80.5982 12.6302C81.2806 13.1073 82.698 13.2635 84.0697 13.4163C86.9606 13.7372 90.921 14.1787 90.921 18.3705C90.921 21.031 87.9571 23.1159 84.1715 23.1159C80.386 23.1159 77.4221 21.031 77.4221 18.3705H79.5559C79.5559 19.9088 81.9885 20.9818 84.1715 20.9818C86.3546 20.9818 88.7872 19.9088 88.7872 18.3705C88.7872 16.3128 87.2016 15.9121 83.8354 15.5386C82.1226 15.3484 80.5048 15.1685 79.3776 14.3807C78.1181 13.5012 77.4238 12.306 77.4238 11.0139C77.4238 8.35346 80.3877 6.26855 84.1732 6.26855C87.9588 6.26855 90.9227 8.35346 90.9227 11.0139H88.7889C88.7889 9.47572 86.3563 8.4027 84.1732 8.4027C81.9902 8.4027 79.5576 9.47402 79.5576 11.0139Z" fill="#1C0236"/>
<path d="M103.316 19.2046C102.466 21.5731 100.42 23.1028 98.1049 23.1028C95.0154 23.1028 92.5013 20.332 92.5013 16.9279C92.5013 13.5238 95.0154 10.7529 98.1049 10.7529C100.381 10.7529 102.415 12.2487 103.284 14.5645L101.286 15.3149C100.731 13.8395 99.4833 12.8871 98.1049 12.8871C96.1918 12.8871 94.6351 14.7003 94.6351 16.9279C94.6351 19.1554 96.1918 20.9687 98.1049 20.9687C99.5071 20.9687 100.765 19.9924 101.308 18.4831L103.316 19.2063V19.2046Z" fill="#1C0236"/>
<path d="M105.382 9.88051V7.67676H108V9.88051H105.382ZM105.625 22.5394V11.3169H107.759V22.5394H105.625Z" fill="#1C0236"/>
<defs>
<linearGradient id="paint0_linear_5001_233517" x1="6.7689e-05" y1="15.4905" x2="24.5959" y2="15.4905" gradientUnits="userSpaceOnUse">
<stop stop-color="#7759D9"/>
<stop offset="0.51" stop-color="#8295FF"/>
<stop offset="1" stop-color="#5CE0B0"/>
</linearGradient>
</defs>
</svg>
